<?xml version="1.0" encoding="iso-8859-1"?>
<!-- Uploaded to: SVG Repo, www.svgrepo.com, Generator: SVG Repo Mixer Tools -->
<svg version="1.1" id="Layer_1" xmlns="http://www.w3.org/2000/svg" xmlns:xlink="http://www.w3.org/1999/xlink" 
	 viewBox="0 0 512 512" xml:space="preserve">
<polygon style="fill:#AFB6BB;" points="324.619,440.742 324.619,461.856 176.825,461.856 176.825,387.959 324.619,387.959 "/>
<path style="fill:#E7ECED;" d="M324.619,493.526c0,5.806,4.751,10.557,10.557,10.557H139.876l10.557-42.227h26.392h147.794V493.526z
	"/>
<path style="fill:#AFB6BB;" d="M256,308.784c11.612,0,21.113,9.501,21.113,21.113S267.612,351.01,256,351.01
	c-11.612,0-21.113-9.501-21.113-21.113S244.388,308.784,256,308.784z"/>
<path style="fill:#E7ECED;" d="M44.866,277.113h279.753v110.845H176.825H18.474c-5.806,0-10.557-4.751-10.557-10.557V277.113H44.866
	z M256,308.784c-11.612,0-21.113,9.501-21.113,21.113S244.388,351.01,256,351.01c11.612,0,21.113-9.501,21.113-21.113
	S267.612,308.784,256,308.784z"/>
<g>
	<path style="fill:#7E8488;" d="M324.619,440.742h179.464v52.784c0,5.806-4.751,10.557-10.557,10.557H335.175
		c-5.806,0-10.557-4.751-10.557-10.557v-31.67V440.742z"/>
	<path style="fill:#7E8488;" d="M335.175,176.825h131.959h26.392c5.806,0,10.557,4.751,10.557,10.557v52.784H324.619v-52.784
		C324.619,181.575,329.369,176.825,335.175,176.825z"/>
</g>
<path style="fill:#595E62;" d="M504.082,18.474v168.907c0-5.806-4.751-10.557-10.557-10.557h-26.392V44.866H44.866v232.247H7.918
	V18.474c0-5.806,4.751-10.557,10.557-10.557h475.052C499.332,7.918,504.082,12.668,504.082,18.474z"/>
<g>
	<polygon style="fill:#00ABD5;" points="504.082,240.165 504.082,440.742 324.619,440.742 324.619,387.959 324.619,277.113 
		324.619,240.165 	"/>
	<path style="fill:#00ABD5;" d="M467.134,44.866v131.959H335.175c-5.806,0-10.557,4.751-10.557,10.557v52.784v36.948H44.866V44.866
		H467.134z"/>
</g>
<g>
	<polygon style="fill:#009FD3;" points="44.866,44.866 44.866,277.113 171.546,277.113 403.794,44.866 	"/>
	<polygon style="fill:#009FD3;" points="504.082,240.165 324.619,240.165 324.619,277.113 324.619,387.959 324.619,440.742 
		356.289,440.742 504.082,292.948 	"/>
</g>
<rect x="176.825" y="387.959" style="fill:#9EA5AA;" width="147.794" height="36.948"/>
<path d="M256,300.866c-16.008,0-29.031,13.024-29.031,29.031c0,16.007,13.023,29.031,29.031,29.031s29.031-13.024,29.031-29.031
	C285.031,313.89,272.008,300.866,256,300.866z M256,343.093c-7.277,0-13.196-5.919-13.196-13.196s5.919-13.196,13.196-13.196
	c7.277,0,13.196,5.919,13.196,13.196S263.277,343.093,256,343.093z"/>
<path d="M493.526,0H18.474C8.288,0,0,8.288,0,18.474v358.928c0,10.186,8.288,18.474,18.474,18.474h150.433v58.062h-24.656
	L129.736,512h205.44h158.351c10.186,0,18.474-8.288,18.474-18.474V187.381V18.474C512,8.288,503.712,0,493.526,0z M18.474,15.835
	h475.052c1.43,0,2.639,1.209,2.639,2.639v150.644c-0.865-0.125-21.113-0.211-21.113-0.211V36.948H36.948v232.247H15.835V18.474
	C15.835,17.044,17.044,15.835,18.474,15.835z M332.536,248.082h163.629v184.742H332.536V248.082z M316.701,187.381v81.814H52.784
	V52.784h406.433v116.124H335.175C324.989,168.907,316.701,177.195,316.701,187.381z M15.835,377.402v-92.371h300.866v95.01H18.474
	C17.044,380.041,15.835,378.833,15.835,377.402z M184.742,395.876h131.959v58.062H184.742V395.876z M156.615,469.773h160.086
	c0,0,0.087,25.527,0.211,26.392H150.017L156.615,469.773z M493.526,496.165H335.175c-1.43,0-2.639-1.209-2.639-2.639V448.66h163.629
	v44.866C496.165,494.956,494.956,496.165,493.526,496.165z M496.165,232.247H332.536v-44.866c0-1.43,1.209-2.639,2.639-2.639
	h158.351c1.43,0,2.639,1.209,2.639,2.639V232.247z"/>
<rect x="377.402" y="200.577" width="73.897" height="15.835"/>
<rect x="398.515" y="464.495" width="31.67" height="15.835"/>
<g>
	<rect x="73.897" y="71.258" style="fill:#FFFFFF;" width="15.835" height="100.289"/>
	<rect x="73.897" y="187.381" style="fill:#FFFFFF;" width="15.835" height="21.113"/>
	<polygon style="fill:#FFFFFF;" points="369.485,324.619 353.65,324.619 353.65,269.196 393.237,269.196 393.237,285.031 
		369.485,285.031 	"/>
	<rect x="353.65" y="345.732" style="fill:#FFFFFF;" width="15.835" height="21.113"/>
</g>
</svg>