<svg xmlns="http://www.w3.org/2000/svg" xmlns:xlink="http://www.w3.org/1999/xlink" width="500" zoomAndPan="magnify" viewBox="0 0 375 374.999991" height="500" preserveAspectRatio="xMidYMid meet" version="1.0"><defs><clipPath id="dc12296d12"><path d="M 133 62 L 162 62 L 162 74 L 133 74 Z M 133 62 " clip-rule="nonzero"/></clipPath><clipPath id="4c26e9771d"><path d="M 3.308594 162.101562 L 222.015625 5.058594 L 371.621094 213.410156 L 152.914062 370.449219 Z M 3.308594 162.101562 " clip-rule="nonzero"/></clipPath><clipPath id="1e9a3aa2d9"><path d="M 3.308594 162.101562 L 222.015625 5.058594 L 371.621094 213.410156 L 152.914062 370.449219 Z M 3.308594 162.101562 " clip-rule="nonzero"/></clipPath><clipPath id="7f00046acc"><path d="M 147 61 L 170 61 L 170 73 L 147 73 Z M 147 61 " clip-rule="nonzero"/></clipPath><clipPath id="4b71bda028"><path d="M 3.308594 162.101562 L 222.015625 5.058594 L 371.621094 213.410156 L 152.914062 370.449219 Z M 3.308594 162.101562 " clip-rule="nonzero"/></clipPath><clipPath id="a9b060b63b"><path d="M 3.308594 162.101562 L 222.015625 5.058594 L 371.621094 213.410156 L 152.914062 370.449219 Z M 3.308594 162.101562 " clip-rule="nonzero"/></clipPath><clipPath id="63f1c9da85"><path d="M 166 61 L 184 61 L 184 73 L 166 73 Z M 166 61 " clip-rule="nonzero"/></clipPath><clipPath id="a4826223d1"><path d="M 3.308594 162.101562 L 222.015625 5.058594 L 371.621094 213.410156 L 152.914062 370.449219 Z M 3.308594 162.101562 " clip-rule="nonzero"/></clipPath><clipPath id="f3e646eaa4"><path d="M 3.308594 162.101562 L 222.015625 5.058594 L 371.621094 213.410156 L 152.914062 370.449219 Z M 3.308594 162.101562 " clip-rule="nonzero"/></clipPath><clipPath id="c9aa11e5cd"><path d="M 187 61 L 201 61 L 201 73 L 187 73 Z M 187 61 " clip-rule="nonzero"/></clipPath><clipPath id="316727f02f"><path d="M 3.308594 162.101562 L 222.015625 5.058594 L 371.621094 213.410156 L 152.914062 370.449219 Z M 3.308594 162.101562 " clip-rule="nonzero"/></clipPath><clipPath id="3710eefd78"><path d="M 3.308594 162.101562 L 222.015625 5.058594 L 371.621094 213.410156 L 152.914062 370.449219 Z M 3.308594 162.101562 " clip-rule="nonzero"/></clipPath><clipPath id="33feb9576f"><path d="M 205 62 L 222 62 L 222 74 L 205 74 Z M 205 62 " clip-rule="nonzero"/></clipPath><clipPath id="c42ae36346"><path d="M 3.308594 162.101562 L 222.015625 5.058594 L 371.621094 213.410156 L 152.914062 370.449219 Z M 3.308594 162.101562 " clip-rule="nonzero"/></clipPath><clipPath id="7afa9ac2b5"><path d="M 3.308594 162.101562 L 222.015625 5.058594 L 371.621094 213.410156 L 152.914062 370.449219 Z M 3.308594 162.101562 " clip-rule="nonzero"/></clipPath><clipPath id="cc71adcf4a"><path d="M 218 62 L 241 62 L 241 75 L 218 75 Z M 218 62 " clip-rule="nonzero"/></clipPath><clipPath id="681087ebff"><path d="M 3.308594 162.101562 L 222.015625 5.058594 L 371.621094 213.410156 L 152.914062 370.449219 Z M 3.308594 162.101562 " clip-rule="nonzero"/></clipPath><clipPath id="2c49bca124"><path d="M 3.308594 162.101562 L 222.015625 5.058594 L 371.621094 213.410156 L 152.914062 370.449219 Z M 3.308594 162.101562 " clip-rule="nonzero"/></clipPath><clipPath id="b2109d0a05"><path d="M 226 63 L 255 63 L 255 76 L 226 76 Z M 226 63 " clip-rule="nonzero"/></clipPath><clipPath id="f79f6f6f6c"><path d="M 3.308594 162.101562 L 222.015625 5.058594 L 371.621094 213.410156 L 152.914062 370.449219 Z M 3.308594 162.101562 " clip-rule="nonzero"/></clipPath><clipPath id="d7d979f6bc"><path d="M 3.308594 162.101562 L 222.015625 5.058594 L 371.621094 213.410156 L 152.914062 370.449219 Z M 3.308594 162.101562 " clip-rule="nonzero"/></clipPath><clipPath id="1b4336d78c"><path d="M 98 78 L 123 78 L 123 99 L 98 99 Z M 98 78 " clip-rule="nonzero"/></clipPath><clipPath id="42b08ffae6"><path d="M 3.308594 162.101562 L 222.015625 5.058594 L 371.621094 213.410156 L 152.914062 370.449219 Z M 3.308594 162.101562 " clip-rule="nonzero"/></clipPath><clipPath id="af1c9ec5e0"><path d="M 3.308594 162.101562 L 222.015625 5.058594 L 371.621094 213.410156 L 152.914062 370.449219 Z M 3.308594 162.101562 " clip-rule="nonzero"/></clipPath><clipPath id="f2b076cb8b"><path d="M 112 77 L 136 77 L 136 98 L 112 98 Z M 112 77 " clip-rule="nonzero"/></clipPath><clipPath id="3c29a973ec"><path d="M 3.308594 162.101562 L 222.015625 5.058594 L 371.621094 213.410156 L 152.914062 370.449219 Z M 3.308594 162.101562 " clip-rule="nonzero"/></clipPath><clipPath id="266a357e31"><path d="M 3.308594 162.101562 L 222.015625 5.058594 L 371.621094 213.410156 L 152.914062 370.449219 Z M 3.308594 162.101562 " clip-rule="nonzero"/></clipPath><clipPath id="f36edecf6f"><path d="M 135 76 L 160 76 L 160 97 L 135 97 Z M 135 76 " clip-rule="nonzero"/></clipPath><clipPath id="7d256ce459"><path d="M 3.308594 162.101562 L 222.015625 5.058594 L 371.621094 213.410156 L 152.914062 370.449219 Z M 3.308594 162.101562 " clip-rule="nonzero"/></clipPath><clipPath id="223e5b356d"><path d="M 3.308594 162.101562 L 222.015625 5.058594 L 371.621094 213.410156 L 152.914062 370.449219 Z M 3.308594 162.101562 " clip-rule="nonzero"/></clipPath><clipPath id="5ccf202c2d"><path d="M 166 76 L 190 76 L 190 96 L 166 96 Z M 166 76 " clip-rule="nonzero"/></clipPath><clipPath id="113cfc3046"><path d="M 3.308594 162.101562 L 222.015625 5.058594 L 371.621094 213.410156 L 152.914062 370.449219 Z M 3.308594 162.101562 " clip-rule="nonzero"/></clipPath><clipPath id="bc3550f47f"><path d="M 3.308594 162.101562 L 222.015625 5.058594 L 371.621094 213.410156 L 152.914062 370.449219 Z M 3.308594 162.101562 " clip-rule="nonzero"/></clipPath><clipPath id="07753aa85e"><path d="M 198 77 L 221 77 L 221 97 L 198 97 Z M 198 77 " clip-rule="nonzero"/></clipPath><clipPath id="3c62fee51a"><path d="M 3.308594 162.101562 L 222.015625 5.058594 L 371.621094 213.410156 L 152.914062 370.449219 Z M 3.308594 162.101562 " clip-rule="nonzero"/></clipPath><clipPath id="d52a908b01"><path d="M 3.308594 162.101562 L 222.015625 5.058594 L 371.621094 213.410156 L 152.914062 370.449219 Z M 3.308594 162.101562 " clip-rule="nonzero"/></clipPath><clipPath id="7412662837"><path d="M 227 78 L 251 78 L 251 98 L 227 98 Z M 227 78 " clip-rule="nonzero"/></clipPath><clipPath id="e5bfd6d277"><path d="M 3.308594 162.101562 L 222.015625 5.058594 L 371.621094 213.410156 L 152.914062 370.449219 Z M 3.308594 162.101562 " clip-rule="nonzero"/></clipPath><clipPath id="cdde374811"><path d="M 3.308594 162.101562 L 222.015625 5.058594 L 371.621094 213.410156 L 152.914062 370.449219 Z M 3.308594 162.101562 " clip-rule="nonzero"/></clipPath><clipPath id="53add8d9e3"><path d="M 251 79 L 275 79 L 275 100 L 251 100 Z M 251 79 " clip-rule="nonzero"/></clipPath><clipPath id="c1b89436f1"><path d="M 3.308594 162.101562 L 222.015625 5.058594 L 371.621094 213.410156 L 152.914062 370.449219 Z M 3.308594 162.101562 " clip-rule="nonzero"/></clipPath><clipPath id="dd72fad5bf"><path d="M 3.308594 162.101562 L 222.015625 5.058594 L 371.621094 213.410156 L 152.914062 370.449219 Z M 3.308594 162.101562 " clip-rule="nonzero"/></clipPath><clipPath id="b3b576baaa"><path d="M 265 81 L 290 81 L 290 103 L 265 103 Z M 265 81 " clip-rule="nonzero"/></clipPath><clipPath id="aae5977241"><path d="M 3.308594 162.101562 L 222.015625 5.058594 L 371.621094 213.410156 L 152.914062 370.449219 Z M 3.308594 162.101562 " clip-rule="nonzero"/></clipPath><clipPath id="98d1563c7e"><path d="M 3.308594 162.101562 L 222.015625 5.058594 L 371.621094 213.410156 L 152.914062 370.449219 Z M 3.308594 162.101562 " clip-rule="nonzero"/></clipPath><clipPath id="1379734f40"><path d="M 72 104 L 92 104 L 92 132 L 72 132 Z M 72 104 " clip-rule="nonzero"/></clipPath><clipPath id="7db7198020"><path d="M 3.308594 162.101562 L 222.015625 5.058594 L 371.621094 213.410156 L 152.914062 370.449219 Z M 3.308594 162.101562 " clip-rule="nonzero"/></clipPath><clipPath id="d58bbe30c9"><path d="M 3.308594 162.101562 L 222.015625 5.058594 L 371.621094 213.410156 L 152.914062 370.449219 Z M 3.308594 162.101562 " clip-rule="nonzero"/></clipPath><clipPath id="940b267ed2"><path d="M 82 102 L 104 102 L 104 129 L 82 129 Z M 82 102 " clip-rule="nonzero"/></clipPath><clipPath id="6c5876c7df"><path d="M 3.308594 162.101562 L 222.015625 5.058594 L 371.621094 213.410156 L 152.914062 370.449219 Z M 3.308594 162.101562 " clip-rule="nonzero"/></clipPath><clipPath id="4a1e16d0be"><path d="M 3.308594 162.101562 L 222.015625 5.058594 L 371.621094 213.410156 L 152.914062 370.449219 Z M 3.308594 162.101562 " clip-rule="nonzero"/></clipPath><clipPath id="213ee92108"><path d="M 105 101 L 130 101 L 130 128 L 105 128 Z M 105 101 " clip-rule="nonzero"/></clipPath><clipPath id="2ddc0c5808"><path d="M 3.308594 162.101562 L 222.015625 5.058594 L 371.621094 213.410156 L 152.914062 370.449219 Z M 3.308594 162.101562 " clip-rule="nonzero"/></clipPath><clipPath id="5a19f3bc69"><path d="M 3.308594 162.101562 L 222.015625 5.058594 L 371.621094 213.410156 L 152.914062 370.449219 Z M 3.308594 162.101562 " clip-rule="nonzero"/></clipPath><clipPath id="fed9cf5bf8"><path d="M 139 100 L 168 100 L 168 127 L 139 127 Z M 139 100 " clip-rule="nonzero"/></clipPath><clipPath id="91ea22a57c"><path d="M 3.308594 162.101562 L 222.015625 5.058594 L 371.621094 213.410156 L 152.914062 370.449219 Z M 3.308594 162.101562 " clip-rule="nonzero"/></clipPath><clipPath id="da081c43da"><path d="M 3.308594 162.101562 L 222.015625 5.058594 L 371.621094 213.410156 L 152.914062 370.449219 Z M 3.308594 162.101562 " clip-rule="nonzero"/></clipPath><clipPath id="56b0e7f445"><path d="M 179 100 L 208 100 L 208 127 L 179 127 Z M 179 100 " clip-rule="nonzero"/></clipPath><clipPath id="39e98920ff"><path d="M 3.308594 162.101562 L 222.015625 5.058594 L 371.621094 213.410156 L 152.914062 370.449219 Z M 3.308594 162.101562 " clip-rule="nonzero"/></clipPath><clipPath id="b5f10da107"><path d="M 3.308594 162.101562 L 222.015625 5.058594 L 371.621094 213.410156 L 152.914062 370.449219 Z M 3.308594 162.101562 " clip-rule="nonzero"/></clipPath><clipPath id="0a925f7219"><path d="M 219 101 L 247 101 L 247 128 L 219 128 Z M 219 101 " clip-rule="nonzero"/></clipPath><clipPath id="8683ee3fff"><path d="M 3.308594 162.101562 L 222.015625 5.058594 L 371.621094 213.410156 L 152.914062 370.449219 Z M 3.308594 162.101562 " clip-rule="nonzero"/></clipPath><clipPath id="842769bcd9"><path d="M 3.308594 162.101562 L 222.015625 5.058594 L 371.621094 213.410156 L 152.914062 370.449219 Z M 3.308594 162.101562 " clip-rule="nonzero"/></clipPath><clipPath id="7ded6343f9"><path d="M 255 103 L 280 103 L 280 130 L 255 130 Z M 255 103 " clip-rule="nonzero"/></clipPath><clipPath id="69dba900fc"><path d="M 3.308594 162.101562 L 222.015625 5.058594 L 371.621094 213.410156 L 152.914062 370.449219 Z M 3.308594 162.101562 " clip-rule="nonzero"/></clipPath><clipPath id="020b4f7600"><path d="M 3.308594 162.101562 L 222.015625 5.058594 L 371.621094 213.410156 L 152.914062 370.449219 Z M 3.308594 162.101562 " clip-rule="nonzero"/></clipPath><clipPath id="cada205661"><path d="M 283 105 L 304 105 L 304 133 L 283 133 Z M 283 105 " clip-rule="nonzero"/></clipPath><clipPath id="a7c817b164"><path d="M 3.308594 162.101562 L 222.015625 5.058594 L 371.621094 213.410156 L 152.914062 370.449219 Z M 3.308594 162.101562 " clip-rule="nonzero"/></clipPath><clipPath id="e134bb840d"><path d="M 3.308594 162.101562 L 222.015625 5.058594 L 371.621094 213.410156 L 152.914062 370.449219 Z M 3.308594 162.101562 " clip-rule="nonzero"/></clipPath><clipPath id="bd7fdac675"><path d="M 296 108 L 314 108 L 314 136 L 296 136 Z M 296 108 " clip-rule="nonzero"/></clipPath><clipPath id="caf3f817fa"><path d="M 3.308594 162.101562 L 222.015625 5.058594 L 371.621094 213.410156 L 152.914062 370.449219 Z M 3.308594 162.101562 " clip-rule="nonzero"/></clipPath><clipPath id="779f2d0f13"><path d="M 3.308594 162.101562 L 222.015625 5.058594 L 371.621094 213.410156 L 152.914062 370.449219 Z M 3.308594 162.101562 " clip-rule="nonzero"/></clipPath><clipPath id="39b03ee795"><path d="M 63 133 L 77 133 L 77 165 L 63 165 Z M 63 133 " clip-rule="nonzero"/></clipPath><clipPath id="4521c544c7"><path d="M 3.308594 162.101562 L 222.015625 5.058594 L 371.621094 213.410156 L 152.914062 370.449219 Z M 3.308594 162.101562 " clip-rule="nonzero"/></clipPath><clipPath id="40a099f3cd"><path d="M 3.308594 162.101562 L 222.015625 5.058594 L 371.621094 213.410156 L 152.914062 370.449219 Z M 3.308594 162.101562 " clip-rule="nonzero"/></clipPath><clipPath id="a7d9becccc"><path d="M 80 131 L 102 131 L 102 163 L 80 163 Z M 80 131 " clip-rule="nonzero"/></clipPath><clipPath id="1c94d351cb"><path d="M 3.308594 162.101562 L 222.015625 5.058594 L 371.621094 213.410156 L 152.914062 370.449219 Z M 3.308594 162.101562 " clip-rule="nonzero"/></clipPath><clipPath id="96028db01f"><path d="M 3.308594 162.101562 L 222.015625 5.058594 L 371.621094 213.410156 L 152.914062 370.449219 Z M 3.308594 162.101562 " clip-rule="nonzero"/></clipPath><clipPath id="fbb4784861"><path d="M 111 130 L 141 130 L 141 162 L 111 162 Z M 111 130 " clip-rule="nonzero"/></clipPath><clipPath id="d525c7944e"><path d="M 3.308594 162.101562 L 222.015625 5.058594 L 371.621094 213.410156 L 152.914062 370.449219 Z M 3.308594 162.101562 " clip-rule="nonzero"/></clipPath><clipPath id="1931bf7eb5"><path d="M 3.308594 162.101562 L 222.015625 5.058594 L 371.621094 213.410156 L 152.914062 370.449219 Z M 3.308594 162.101562 " clip-rule="nonzero"/></clipPath><clipPath id="0e45ea3a3b"><path d="M 154 129 L 186 129 L 186 161 L 154 161 Z M 154 129 " clip-rule="nonzero"/></clipPath><clipPath id="8ca794ad93"><path d="M 3.308594 162.101562 L 222.015625 5.058594 L 371.621094 213.410156 L 152.914062 370.449219 Z M 3.308594 162.101562 " clip-rule="nonzero"/></clipPath><clipPath id="1214438354"><path d="M 3.308594 162.101562 L 222.015625 5.058594 L 371.621094 213.410156 L 152.914062 370.449219 Z M 3.308594 162.101562 " clip-rule="nonzero"/></clipPath><clipPath id="e1583b3734"><path d="M 244 132 L 273 132 L 273 164 L 244 164 Z M 244 132 " clip-rule="nonzero"/></clipPath><clipPath id="e7f09837be"><path d="M 3.308594 162.101562 L 222.015625 5.058594 L 371.621094 213.410156 L 152.914062 370.449219 Z M 3.308594 162.101562 " clip-rule="nonzero"/></clipPath><clipPath id="064d03cbb7"><path d="M 3.308594 162.101562 L 222.015625 5.058594 L 371.621094 213.410156 L 152.914062 370.449219 Z M 3.308594 162.101562 " clip-rule="nonzero"/></clipPath><clipPath id="184394ad1a"><path d="M 57 172 L 62 172 L 62 207 L 57 207 Z M 57 172 " clip-rule="nonzero"/></clipPath><clipPath id="36c861c0d7"><path d="M 3.308594 162.101562 L 222.015625 5.058594 L 371.621094 213.410156 L 152.914062 370.449219 Z M 3.308594 162.101562 " clip-rule="nonzero"/></clipPath><clipPath id="6eeadd530b"><path d="M 3.308594 162.101562 L 222.015625 5.058594 L 371.621094 213.410156 L 152.914062 370.449219 Z M 3.308594 162.101562 " clip-rule="nonzero"/></clipPath><clipPath id="7e7a3aefbf"><path d="M 65 170 L 81 170 L 81 205 L 65 205 Z M 65 170 " clip-rule="nonzero"/></clipPath><clipPath id="957263a6e0"><path d="M 3.308594 162.101562 L 222.015625 5.058594 L 371.621094 213.410156 L 152.914062 370.449219 Z M 3.308594 162.101562 " clip-rule="nonzero"/></clipPath><clipPath id="9520c80f7f"><path d="M 3.308594 162.101562 L 222.015625 5.058594 L 371.621094 213.410156 L 152.914062 370.449219 Z M 3.308594 162.101562 " clip-rule="nonzero"/></clipPath><clipPath id="d9052801fe"><path d="M 89 168 L 115 168 L 115 203 L 89 203 Z M 89 168 " clip-rule="nonzero"/></clipPath><clipPath id="d06d619dc6"><path d="M 3.308594 162.101562 L 222.015625 5.058594 L 371.621094 213.410156 L 152.914062 370.449219 Z M 3.308594 162.101562 " clip-rule="nonzero"/></clipPath><clipPath id="374435c14a"><path d="M 3.308594 162.101562 L 222.015625 5.058594 L 371.621094 213.410156 L 152.914062 370.449219 Z M 3.308594 162.101562 " clip-rule="nonzero"/></clipPath><clipPath id="e0bae1d335"><path d="M 128 167 L 161 167 L 161 202 L 128 202 Z M 128 167 " clip-rule="nonzero"/></clipPath><clipPath id="ba0c2adb26"><path d="M 3.308594 162.101562 L 222.015625 5.058594 L 371.621094 213.410156 L 152.914062 370.449219 Z M 3.308594 162.101562 " clip-rule="nonzero"/></clipPath><clipPath id="f1ce70ecce"><path d="M 3.308594 162.101562 L 222.015625 5.058594 L 371.621094 213.410156 L 152.914062 370.449219 Z M 3.308594 162.101562 " clip-rule="nonzero"/></clipPath><clipPath id="6be54aecfc"><path d="M 175 167 L 209 167 L 209 202 L 175 202 Z M 175 167 " clip-rule="nonzero"/></clipPath><clipPath id="a5455a545f"><path d="M 3.308594 162.101562 L 222.015625 5.058594 L 371.621094 213.410156 L 152.914062 370.449219 Z M 3.308594 162.101562 " clip-rule="nonzero"/></clipPath><clipPath id="6af68bddf5"><path d="M 3.308594 162.101562 L 222.015625 5.058594 L 371.621094 213.410156 L 152.914062 370.449219 Z M 3.308594 162.101562 " clip-rule="nonzero"/></clipPath><clipPath id="eb5b9f449b"><path d="M 63 214 L 77 214 L 77 247 L 63 247 Z M 63 214 " clip-rule="nonzero"/></clipPath><clipPath id="cab6323720"><path d="M 3.308594 162.101562 L 222.015625 5.058594 L 371.621094 213.410156 L 152.914062 370.449219 Z M 3.308594 162.101562 " clip-rule="nonzero"/></clipPath><clipPath id="e399ac4bd4"><path d="M 3.308594 162.101562 L 222.015625 5.058594 L 371.621094 213.410156 L 152.914062 370.449219 Z M 3.308594 162.101562 " clip-rule="nonzero"/></clipPath><clipPath id="e7a13ee7f0"><path d="M 79 212 L 101 212 L 101 245 L 79 245 Z M 79 212 " clip-rule="nonzero"/></clipPath><clipPath id="671879f2cb"><path d="M 3.308594 162.101562 L 222.015625 5.058594 L 371.621094 213.410156 L 152.914062 370.449219 Z M 3.308594 162.101562 " clip-rule="nonzero"/></clipPath><clipPath id="6841d14d61"><path d="M 3.308594 162.101562 L 222.015625 5.058594 L 371.621094 213.410156 L 152.914062 370.449219 Z M 3.308594 162.101562 " clip-rule="nonzero"/></clipPath><clipPath id="3c4d1ccf46"><path d="M 110 210 L 140 210 L 140 243 L 110 243 Z M 110 210 " clip-rule="nonzero"/></clipPath><clipPath id="4dcb9e125d"><path d="M 3.308594 162.101562 L 222.015625 5.058594 L 371.621094 213.410156 L 152.914062 370.449219 Z M 3.308594 162.101562 " clip-rule="nonzero"/></clipPath><clipPath id="ef4ea571f9"><path d="M 3.308594 162.101562 L 222.015625 5.058594 L 371.621094 213.410156 L 152.914062 370.449219 Z M 3.308594 162.101562 " clip-rule="nonzero"/></clipPath><clipPath id="d8f7831cc1"><path d="M 152 210 L 185 210 L 185 243 L 152 243 Z M 152 210 " clip-rule="nonzero"/></clipPath><clipPath id="afbd07d750"><path d="M 3.308594 162.101562 L 222.015625 5.058594 L 371.621094 213.410156 L 152.914062 370.449219 Z M 3.308594 162.101562 " clip-rule="nonzero"/></clipPath><clipPath id="4d427a746e"><path d="M 3.308594 162.101562 L 222.015625 5.058594 L 371.621094 213.410156 L 152.914062 370.449219 Z M 3.308594 162.101562 " clip-rule="nonzero"/></clipPath><clipPath id="a43bf64b43"><path d="M 72 253 L 91 253 L 91 281 L 72 281 Z M 72 253 " clip-rule="nonzero"/></clipPath><clipPath id="ea0bd3cb1f"><path d="M 3.308594 162.101562 L 222.015625 5.058594 L 371.621094 213.410156 L 152.914062 370.449219 Z M 3.308594 162.101562 " clip-rule="nonzero"/></clipPath><clipPath id="9b10eb0eb6"><path d="M 3.308594 162.101562 L 222.015625 5.058594 L 371.621094 213.410156 L 152.914062 370.449219 Z M 3.308594 162.101562 " clip-rule="nonzero"/></clipPath><clipPath id="f546dc05f6"><path d="M 82 250 L 103 250 L 103 279 L 82 279 Z M 82 250 " clip-rule="nonzero"/></clipPath><clipPath id="d9f7106c45"><path d="M 3.308594 162.101562 L 222.015625 5.058594 L 371.621094 213.410156 L 152.914062 370.449219 Z M 3.308594 162.101562 " clip-rule="nonzero"/></clipPath><clipPath id="4af6445bf6"><path d="M 3.308594 162.101562 L 222.015625 5.058594 L 371.621094 213.410156 L 152.914062 370.449219 Z M 3.308594 162.101562 " clip-rule="nonzero"/></clipPath><clipPath id="b9fd67e64c"><path d="M 104 249 L 129 249 L 129 277 L 104 277 Z M 104 249 " clip-rule="nonzero"/></clipPath><clipPath id="2bf4953636"><path d="M 3.308594 162.101562 L 222.015625 5.058594 L 371.621094 213.410156 L 152.914062 370.449219 Z M 3.308594 162.101562 " clip-rule="nonzero"/></clipPath><clipPath id="25c06301db"><path d="M 3.308594 162.101562 L 222.015625 5.058594 L 371.621094 213.410156 L 152.914062 370.449219 Z M 3.308594 162.101562 " clip-rule="nonzero"/></clipPath><clipPath id="a73b8723bd"><path d="M 97 282 L 122 282 L 122 304 L 97 304 Z M 97 282 " clip-rule="nonzero"/></clipPath><clipPath id="2fa31fbd38"><path d="M 3.308594 162.101562 L 222.015625 5.058594 L 371.621094 213.410156 L 152.914062 370.449219 Z M 3.308594 162.101562 " clip-rule="nonzero"/></clipPath><clipPath id="b600a02ed8"><path d="M 3.308594 162.101562 L 222.015625 5.058594 L 371.621094 213.410156 L 152.914062 370.449219 Z M 3.308594 162.101562 " clip-rule="nonzero"/></clipPath><clipPath id="0a7190d6da"><path d="M 110 281 L 135 281 L 135 303 L 110 303 Z M 110 281 " clip-rule="nonzero"/></clipPath><clipPath id="e40f08bb91"><path d="M 3.308594 162.101562 L 222.015625 5.058594 L 371.621094 213.410156 L 152.914062 370.449219 Z M 3.308594 162.101562 " clip-rule="nonzero"/></clipPath><clipPath id="547bb1d1de"><path d="M 3.308594 162.101562 L 222.015625 5.058594 L 371.621094 213.410156 L 152.914062 370.449219 Z M 3.308594 162.101562 " clip-rule="nonzero"/></clipPath><clipPath id="5b2fed1c13"><path d="M 134 280 L 157 280 L 157 302 L 134 302 Z M 134 280 " clip-rule="nonzero"/></clipPath><clipPath id="e276f20a4e"><path d="M 3.308594 162.101562 L 222.015625 5.058594 L 371.621094 213.410156 L 152.914062 370.449219 Z M 3.308594 162.101562 " clip-rule="nonzero"/></clipPath><clipPath id="4ef5623eca"><path d="M 3.308594 162.101562 L 222.015625 5.058594 L 371.621094 213.410156 L 152.914062 370.449219 Z M 3.308594 162.101562 " clip-rule="nonzero"/></clipPath><clipPath id="6d51606fd4"><path d="M 164 279 L 186 279 L 186 302 L 164 302 Z M 164 279 " clip-rule="nonzero"/></clipPath><clipPath id="91e22b5d88"><path d="M 3.308594 162.101562 L 222.015625 5.058594 L 371.621094 213.410156 L 152.914062 370.449219 Z M 3.308594 162.101562 " clip-rule="nonzero"/></clipPath><clipPath id="3189821b34"><path d="M 3.308594 162.101562 L 222.015625 5.058594 L 371.621094 213.410156 L 152.914062 370.449219 Z M 3.308594 162.101562 " clip-rule="nonzero"/></clipPath><clipPath id="e91f454e3d"><path d="M 130 306 L 158 306 L 158 321 L 130 321 Z M 130 306 " clip-rule="nonzero"/></clipPath><clipPath id="b543d2a2d8"><path d="M 3.308594 162.101562 L 222.015625 5.058594 L 371.621094 213.410156 L 152.914062 370.449219 Z M 3.308594 162.101562 " clip-rule="nonzero"/></clipPath><clipPath id="354cd2e668"><path d="M 3.308594 162.101562 L 222.015625 5.058594 L 371.621094 213.410156 L 152.914062 370.449219 Z M 3.308594 162.101562 " clip-rule="nonzero"/></clipPath><clipPath id="9bc123d9aa"><path d="M 143 305 L 166 305 L 166 321 L 143 321 Z M 143 305 " clip-rule="nonzero"/></clipPath><clipPath id="fdda9da71e"><path d="M 3.308594 162.101562 L 222.015625 5.058594 L 371.621094 213.410156 L 152.914062 370.449219 Z M 3.308594 162.101562 " clip-rule="nonzero"/></clipPath><clipPath id="28d0b9d843"><path d="M 3.308594 162.101562 L 222.015625 5.058594 L 371.621094 213.410156 L 152.914062 370.449219 Z M 3.308594 162.101562 " clip-rule="nonzero"/></clipPath><clipPath id="b9acdd5ffe"><path d="M 162 305 L 179 305 L 179 320 L 162 320 Z M 162 305 " clip-rule="nonzero"/></clipPath><clipPath id="7be4a0e849"><path d="M 3.308594 162.101562 L 222.015625 5.058594 L 371.621094 213.410156 L 152.914062 370.449219 Z M 3.308594 162.101562 " clip-rule="nonzero"/></clipPath><clipPath id="9c490048b9"><path d="M 3.308594 162.101562 L 222.015625 5.058594 L 371.621094 213.410156 L 152.914062 370.449219 Z M 3.308594 162.101562 " clip-rule="nonzero"/></clipPath><clipPath id="9d9fc9915a"><path d="M 183 305 L 197 305 L 197 320 L 183 320 Z M 183 305 " clip-rule="nonzero"/></clipPath><clipPath id="354867aaef"><path d="M 3.308594 162.101562 L 222.015625 5.058594 L 371.621094 213.410156 L 152.914062 370.449219 Z M 3.308594 162.101562 " clip-rule="nonzero"/></clipPath><clipPath id="1a70832bd0"><path d="M 3.308594 162.101562 L 222.015625 5.058594 L 371.621094 213.410156 L 152.914062 370.449219 Z M 3.308594 162.101562 " clip-rule="nonzero"/></clipPath><clipPath id="099103efa0"><path d="M 200 306 L 217 306 L 217 321 L 200 321 Z M 200 306 " clip-rule="nonzero"/></clipPath><clipPath id="87ec2c4482"><path d="M 3.308594 162.101562 L 222.015625 5.058594 L 371.621094 213.410156 L 152.914062 370.449219 Z M 3.308594 162.101562 " clip-rule="nonzero"/></clipPath><clipPath id="833201f6b0"><path d="M 3.308594 162.101562 L 222.015625 5.058594 L 371.621094 213.410156 L 152.914062 370.449219 Z M 3.308594 162.101562 " clip-rule="nonzero"/></clipPath><clipPath id="769c2a0791"><path d="M 212 307 L 236 307 L 236 321 L 212 321 Z M 212 307 " clip-rule="nonzero"/></clipPath><clipPath id="f4f9efb2ea"><path d="M 3.308594 162.101562 L 222.015625 5.058594 L 371.621094 213.410156 L 152.914062 370.449219 Z M 3.308594 162.101562 " clip-rule="nonzero"/></clipPath><clipPath id="9e82561f73"><path d="M 3.308594 162.101562 L 222.015625 5.058594 L 371.621094 213.410156 L 152.914062 370.449219 Z M 3.308594 162.101562 " clip-rule="nonzero"/></clipPath></defs><g clip-path="url(#dc12296d12)"><g clip-path="url(#4c26e9771d)"><g clip-path="url(#1e9a3aa2d9)"><path fill="#393e46" d="M 149.289062 67.472656 C 135.390625 73.722656 134.558594 74.097656 133.703125 73.707031 C 134.6875 70.816406 154.242188 63.488281 161.316406 62.410156 C 161.035156 62.640625 161.035156 62.640625 159.597656 63.183594 C 156.753906 64.253906 153.910156 65.390625 149.289062 67.472656 " fill-opacity="1" fill-rule="nonzero"/></g></g></g><g clip-path="url(#7f00046acc)"><g clip-path="url(#4b71bda028)"><g clip-path="url(#a9b060b63b)"><path fill="#393e46" d="M 163.210938 66.8125 C 152.351562 73.386719 146.59375 73.746094 147.203125 71.738281 C 148.28125 68.179688 163.214844 62.371094 169.390625 61.875 C 169.542969 61.875 169.742188 61.890625 169.890625 61.917969 C 169.917969 61.976562 169.957031 62.054688 169.984375 62.109375 C 169.425781 63.042969 163.464844 66.660156 163.210938 66.8125 " fill-opacity="1" fill-rule="nonzero"/></g></g></g><g clip-path="url(#63f1c9da85)"><g clip-path="url(#a4826223d1)"><g clip-path="url(#f3e646eaa4)"><path fill="#393e46" d="M 181.546875 66.613281 C 176.867188 72.6875 167.074219 73.757812 166.601562 70.375 C 166.085938 66.667969 175.875 61.855469 181.210938 61.621094 C 185.230469 61.765625 181.695312 66.414062 181.546875 66.613281 " fill-opacity="1" fill-rule="nonzero"/></g></g></g><g clip-path="url(#c9aa11e5cd)"><g clip-path="url(#316727f02f)"><g clip-path="url(#3710eefd78)"><path fill="#393e46" d="M 200.878906 66.882812 C 201.828125 71.84375 194.101562 74.078125 189.742188 71.21875 C 185.160156 68.207031 188.488281 62.800781 192.953125 61.835938 C 193.507812 61.71875 193.96875 61.710938 194.335938 61.699219 C 197.800781 61.898438 200.429688 64.542969 200.878906 66.882812 " fill-opacity="1" fill-rule="nonzero"/></g></g></g><g clip-path="url(#33feb9576f)"><g clip-path="url(#c42ae36346)"><g clip-path="url(#7afa9ac2b5)"><path fill="#393e46" d="M 219.234375 67.570312 C 222.589844 70.6875 221.535156 72.980469 218.441406 73.167969 C 210.996094 73.617188 203.328125 64.773438 205.773438 62.449219 C 206.164062 62.082031 206.796875 62.078125 207.261719 62.078125 C 210.402344 62.328125 216.089844 64.644531 219.234375 67.570312 " fill-opacity="1" fill-rule="nonzero"/></g></g></g><g clip-path="url(#cc71adcf4a)"><g clip-path="url(#681087ebff)"><g clip-path="url(#2c49bca124)"><path fill="#393e46" d="M 234.667969 68.609375 C 239.789062 71.527344 241.132812 73.816406 239.441406 74.261719 C 238.292969 74.570312 235.203125 73.992188 230.289062 71.359375 C 226.140625 69.140625 217.988281 63.570312 218.039062 62.8125 C 218.175781 62.707031 218.25 62.703125 218.640625 62.710938 C 221.597656 63.046875 229.128906 65.457031 234.667969 68.609375 " fill-opacity="1" fill-rule="nonzero"/></g></g></g><g clip-path="url(#b2109d0a05)"><g clip-path="url(#f79f6f6f6c)"><g clip-path="url(#d7d979f6bc)"><path fill="#393e46" d="M 244.925781 69.898438 C 249.582031 72.074219 254.46875 74.949219 254.246094 75.800781 C 253.988281 75.894531 253.453125 76.082031 249.308594 74.226562 C 249.117188 74.140625 227.195312 63.753906 226.929688 63.574219 L 227.09375 63.550781 C 228.644531 63.835938 236.710938 66.058594 244.925781 69.898438 " fill-opacity="1" fill-rule="nonzero"/></g></g></g><g clip-path="url(#1b4336d78c)"><g clip-path="url(#42b08ffae6)"><g clip-path="url(#af1c9ec5e0)"><path fill="#393e46" d="M 112.332031 88.617188 C 103.78125 96.019531 99 99.460938 98.109375 98.851562 C 97.75 95.679688 117.023438 80.46875 122.394531 78.871094 L 122.59375 78.859375 C 122.636719 79.226562 122.691406 79.640625 112.332031 88.617188 " fill-opacity="1" fill-rule="nonzero"/></g></g></g><g clip-path="url(#f2b076cb8b)"><g clip-path="url(#3c29a973ec)"><g clip-path="url(#266a357e31)"><path fill="#393e46" d="M 130.144531 87.238281 C 121.726562 95.914062 112.199219 99.621094 112.089844 95.589844 C 111.941406 90.128906 127.332031 78.476562 134.359375 77.5625 C 139.425781 77.609375 130.238281 87.144531 130.144531 87.238281 " fill-opacity="1" fill-rule="nonzero"/></g></g></g><g clip-path="url(#f36edecf6f)"><g clip-path="url(#7d256ce459)"><g clip-path="url(#223e5b356d)"><path fill="#393e46" d="M 157.527344 86.507812 C 151.601562 95.9375 137.878906 99.0625 136.136719 93.097656 C 134.441406 87.296875 145.859375 77.359375 154.933594 76.742188 C 161.96875 76.949219 159.191406 83.863281 157.527344 86.507812 " fill-opacity="1" fill-rule="nonzero"/></g></g></g><g clip-path="url(#5ccf202c2d)"><g clip-path="url(#113cfc3046)"><g clip-path="url(#bc3550f47f)"><path fill="#393e46" d="M 188.933594 86.578125 C 186.9375 96.617188 171.894531 98.832031 167.835938 91.902344 C 164.339844 85.933594 171.925781 76.910156 180.71875 76.570312 C 187.691406 76.933594 189.71875 82.640625 188.933594 86.578125 " fill-opacity="1" fill-rule="nonzero"/></g></g></g><g clip-path="url(#07753aa85e)"><g clip-path="url(#3c62fee51a)"><g clip-path="url(#d52a908b01)"><path fill="#393e46" d="M 220.339844 87.378906 C 222.320312 95.625 211.972656 98.964844 204.566406 94.445312 C 196.386719 89.457031 197.707031 79.25 204.816406 77.335938 C 205.804688 77.070312 206.707031 77.054688 207.433594 77.042969 C 214.679688 77.582031 219.421875 83.527344 220.339844 87.378906 " fill-opacity="1" fill-rule="nonzero"/></g></g></g><g clip-path="url(#7412662837)"><g clip-path="url(#e5bfd6d277)"><g clip-path="url(#cdde374811)"><path fill="#393e46" d="M 248.546875 88.808594 C 252.421875 94.929688 249.359375 99.253906 242.363281 97.546875 C 231.8125 94.964844 224.351562 81.566406 229.71875 78.566406 C 230.609375 78.070312 231.464844 78.074219 232.371094 78.074219 C 238.574219 78.722656 245.597656 84.152344 248.546875 88.808594 " fill-opacity="1" fill-rule="nonzero"/></g></g></g><g clip-path="url(#53add8d9e3)"><g clip-path="url(#c1b89436f1)"><g clip-path="url(#dd72fad5bf)"><path fill="#393e46" d="M 270.304688 90.773438 C 275.296875 96.113281 275.976562 100.292969 271.796875 99.894531 C 263.316406 99.09375 248.269531 82.019531 251.488281 79.800781 C 251.835938 79.558594 252.394531 79.570312 252.839844 79.585938 C 257.769531 80.371094 265.851562 86.003906 270.304688 90.773438 " fill-opacity="1" fill-rule="nonzero"/></g></g></g><g clip-path="url(#b3b576baaa)"><g clip-path="url(#aae5977241)"><g clip-path="url(#98d1563c7e)"><path fill="#393e46" d="M 281.3125 92.914062 C 285.238281 96.511719 289.355469 100.953125 289.125 102.207031 C 286.636719 103.6875 265.300781 81.753906 265.246094 81.441406 C 265.335938 81.421875 265.453125 81.398438 265.542969 81.382812 C 267.640625 82.082031 274.65625 86.808594 281.3125 92.914062 " fill-opacity="1" fill-rule="nonzero"/></g></g></g><g clip-path="url(#1379734f40)"><g clip-path="url(#7db7198020)"><g clip-path="url(#d58bbe30c9)"><path fill="#393e46" d="M 82.5625 117.859375 C 74.4375 130.019531 73.371094 130.882812 72.96875 131.207031 L 72.84375 131.097656 C 72.953125 130.71875 73.074219 130.375 73.761719 129.101562 L 73.796875 129.039062 C 80.855469 117.140625 80.855469 117.140625 85.082031 111.597656 L 89.558594 106.039062 C 90.449219 104.996094 90.679688 104.796875 90.949219 104.582031 L 91.035156 104.671875 C 90.839844 105.152344 90.515625 105.945312 82.5625 117.859375 " fill-opacity="1" fill-rule="nonzero"/></g></g></g><g clip-path="url(#940b267ed2)"><g clip-path="url(#6c5876c7df)"><g clip-path="url(#4a1e16d0be)"><path fill="#393e46" d="M 98.644531 115.777344 C 92.5625 125.578125 84.160156 131.792969 82.867188 127.441406 C 81.148438 121.636719 94.199219 103.945312 101.246094 102.53125 C 105.347656 102.511719 101.828125 110.644531 98.644531 115.777344 " fill-opacity="1" fill-rule="nonzero"/></g></g></g><g clip-path="url(#213ee92108)"><g clip-path="url(#2ddc0c5808)"><g clip-path="url(#5a19f3bc69)"><path fill="#393e46" d="M 128.007812 114.390625 C 122.546875 125.523438 108.011719 131.261719 105.460938 123.289062 C 103.167969 116.109375 113.425781 102.054688 123.859375 101.03125 C 131.167969 101.1875 130.683594 108.9375 128.007812 114.390625 " fill-opacity="1" fill-rule="nonzero"/></g></g></g><g clip-path="url(#fed9cf5bf8)"><g clip-path="url(#91ea22a57c)"><g clip-path="url(#da081c43da)"><path fill="#393e46" d="M 166.679688 113.964844 C 163.386719 125.703125 145.820312 130.613281 140.578125 121.257812 C 136.363281 113.75 144.570312 100.992188 156.96875 100.320312 C 166.710938 100.738281 168.09375 108.910156 166.679688 113.964844 " fill-opacity="1" fill-rule="nonzero"/></g></g></g><g clip-path="url(#56b0e7f445)"><g clip-path="url(#39e98920ff)"><g clip-path="url(#b5f10da107)"><path fill="#393e46" d="M 207.449219 114.539062 C 206.953125 125.890625 191.417969 130.777344 183.003906 122.226562 C 175.59375 114.703125 180.582031 100.925781 193.746094 100.546875 C 203.589844 101.179688 207.6875 109.109375 207.449219 114.539062 " fill-opacity="1" fill-rule="nonzero"/></g></g></g><g clip-path="url(#0a925f7219)"><g clip-path="url(#8683ee3fff)"><g clip-path="url(#842769bcd9)"><path fill="#393e46" d="M 246.167969 115.984375 C 248.101562 126.117188 237.277344 131.339844 227.488281 124.996094 C 216.355469 117.78125 218.035156 103.375 227.601562 101.742188 C 228.296875 101.621094 229.242188 101.605469 229.949219 101.601562 C 239.40625 102.453125 245.125 110.527344 246.167969 115.984375 " fill-opacity="1" fill-rule="nonzero"/></g></g></g><g clip-path="url(#7ded6343f9)"><g clip-path="url(#69dba900fc)"><g clip-path="url(#020b4f7600)"><path fill="#393e46" d="M 278.710938 118.175781 C 282.085938 126.6875 277.367188 132.097656 269.363281 128.898438 C 257.144531 124.015625 251.734375 106.46875 259.152344 103.699219 C 260.089844 103.351562 261.050781 103.363281 261.828125 103.371094 C 269.753906 104.414062 276.585938 112.824219 278.710938 118.175781 " fill-opacity="1" fill-rule="nonzero"/></g></g></g><g clip-path="url(#cada205661)"><g clip-path="url(#a7c817b164)"><g clip-path="url(#e134bb840d)"><path fill="#393e46" d="M 300.347656 120.890625 C 304.5 128.453125 304.328125 133.710938 299.972656 132.367188 C 291.867188 129.875 278.941406 107.777344 284.429688 105.800781 C 284.734375 105.691406 285.179688 105.714844 285.503906 105.726562 C 290.648438 106.90625 297.277344 115.308594 300.347656 120.890625 " fill-opacity="1" fill-rule="nonzero"/></g></g></g><g clip-path="url(#bd7fdac675)"><g clip-path="url(#caf3f817fa)"><g clip-path="url(#779f2d0f13)"><path fill="#393e46" d="M 312.785156 134.140625 C 313.128906 134.875 313.195312 135.113281 313.261719 135.34375 L 313.140625 135.445312 C 311.273438 133.785156 296.792969 110.351562 296.015625 108.292969 L 296.097656 108.207031 C 296.382812 108.453125 296.503906 108.578125 297.222656 109.460938 L 301.671875 115.390625 C 309.226562 126.976562 309.226562 126.976562 312.335938 133.21875 L 312.542969 133.632812 C 312.613281 133.785156 312.714844 133.984375 312.785156 134.140625 " fill-opacity="1" fill-rule="nonzero"/></g></g></g><g clip-path="url(#39b03ee795)"><g clip-path="url(#4521c544c7)"><g clip-path="url(#40a099f3cd)"><path fill="#393e46" d="M 74.308594 149.621094 C 70.734375 160.378906 65.554688 167.613281 64.042969 163.957031 C 61.925781 158.816406 69.546875 135.796875 75.3125 133.75 C 78.449219 133.671875 76.363281 143.441406 74.308594 149.621094 " fill-opacity="1" fill-rule="nonzero"/></g></g></g><g clip-path="url(#a7d9becccc)"><g clip-path="url(#1c94d351cb)"><g clip-path="url(#96028db01f)"><path fill="#393e46" d="M 100.199219 147.617188 C 96.3125 160.269531 85.207031 167.148438 81.34375 159.296875 C 77.375 151.226562 84.992188 133.039062 94.988281 131.605469 C 101.949219 131.699219 102.226562 141.027344 100.199219 147.617188 " fill-opacity="1" fill-rule="nonzero"/></g></g></g><g clip-path="url(#fbb4784861)"><g clip-path="url(#d525c7944e)"><g clip-path="url(#1931bf7eb5)"><path fill="#393e46" d="M 140.003906 146.558594 C 136.664062 160.480469 118.929688 166.335938 112.894531 155.507812 C 107.800781 146.378906 115.453125 131.242188 128.8125 130.253906 C 139.726562 130.609375 141.464844 140.441406 140.003906 146.558594 " fill-opacity="1" fill-rule="nonzero"/></g></g></g><g clip-path="url(#0e45ea3a3b)"><g clip-path="url(#8ca794ad93)"><g clip-path="url(#1214438354)"><path fill="#393e46" d="M 185.648438 146.65625 C 183.699219 160.734375 165.132812 166.042969 156.859375 154.886719 C 150.113281 145.796875 156.757812 130.585938 171.207031 129.972656 C 182.675781 130.605469 186.554688 140.109375 185.648438 146.65625 " fill-opacity="1" fill-rule="nonzero"/></g></g></g><g clip-path="url(#e1583b3734)"><g clip-path="url(#e7f09837be)"><g clip-path="url(#064d03cbb7)"><path fill="#393e46" d="M 272.292969 149.902344 C 273.371094 162.550781 260.933594 168.074219 251.171875 159.28125 C 240.808594 149.945312 243.082031 133.144531 254.804688 132.445312 C 255.203125 132.421875 255.734375 132.449219 256.132812 132.445312 C 266.355469 133.578125 271.738281 143.339844 272.292969 149.902344 " fill-opacity="1" fill-rule="nonzero"/></g></g></g><g clip-path="url(#184394ad1a)"><g clip-path="url(#36c861c0d7)"><g clip-path="url(#6eeadd530b)"><path fill="#393e46" d="M 61.089844 190.566406 C 60.929688 196.570312 60.308594 206.769531 58.992188 206.890625 C 58.558594 206.492188 58.078125 205.253906 57.761719 199.058594 L 57.652344 190.628906 L 58.214844 180.382812 C 58.867188 173.667969 59.496094 173 59.761719 172.714844 L 59.9375 172.699219 C 61.1875 173.875 61.25 184.484375 61.089844 190.566406 " fill-opacity="1" fill-rule="nonzero"/></g></g></g><g clip-path="url(#7e7a3aefbf)"><g clip-path="url(#957263a6e0)"><g clip-path="url(#9520c80f7f)"><path fill="#393e46" d="M 80.109375 188.105469 C 79.371094 200.214844 73.546875 207.789062 68.984375 202.574219 C 62.886719 195.613281 64.496094 171.976562 73.070312 170.058594 C 78.679688 170.09375 80.5625 180.632812 80.109375 188.105469 " fill-opacity="1" fill-rule="nonzero"/></g></g></g><g clip-path="url(#d9052801fe)"><g clip-path="url(#d06d619dc6)"><g clip-path="url(#374435c14a)"><path fill="#393e46" d="M 114.828125 186.46875 C 113.484375 200.605469 100.148438 207.429688 92.871094 197.703125 C 85.707031 188.125 89.96875 169.441406 102.296875 168.121094 C 112.113281 168.382812 115.535156 179.007812 114.828125 186.46875 " fill-opacity="1" fill-rule="nonzero"/></g></g></g><g clip-path="url(#e0bae1d335)"><g clip-path="url(#ba0c2adb26)"><g clip-path="url(#f1ce70ecce)"><path fill="#393e46" d="M 160.546875 185.960938 C 158.886719 200.945312 141.125 206.792969 132.179688 195.304688 C 124.335938 185.230469 129.996094 168.105469 145.085938 167.207031 C 157.792969 167.804688 161.316406 179.027344 160.546875 185.960938 " fill-opacity="1" fill-rule="nonzero"/></g></g></g><g clip-path="url(#6be54aecfc)"><g clip-path="url(#a5455a545f)"><g clip-path="url(#6af68bddf5)"><path fill="#393e46" d="M 208.75 186.636719 C 207.007812 201.691406 188.582031 207.101562 179.324219 195.28125 C 171.277344 185.003906 177.109375 168.015625 192.609375 167.492188 C 205.875 168.414062 209.550781 179.722656 208.75 186.636719 " fill-opacity="1" fill-rule="nonzero"/></g></g></g><g clip-path="url(#eb5b9f449b)"><g clip-path="url(#cab6323720)"><g clip-path="url(#e399ac4bd4)"><path fill="#393e46" d="M 74.589844 231.667969 C 76.8125 240.347656 76.695312 248.308594 72.980469 245.855469 C 67.3125 242.105469 59.386719 217.027344 65.042969 214.730469 C 68.625 214.679688 72.785156 224.601562 74.589844 231.667969 " fill-opacity="1" fill-rule="nonzero"/></g></g></g><g clip-path="url(#e7a13ee7f0)"><g clip-path="url(#671879f2cb)"><g clip-path="url(#6841d14d61)"><path fill="#393e46" d="M 100.105469 229.695312 C 101.796875 240.660156 96.128906 247.308594 89.085938 242.628906 C 78.90625 235.871094 76.1875 214.804688 85.203125 212.578125 C 85.492188 212.507812 85.898438 212.472656 86.195312 212.425781 C 93.976562 212.5625 99.011719 222.605469 100.105469 229.695312 " fill-opacity="1" fill-rule="nonzero"/></g></g></g><g clip-path="url(#3c4d1ccf46)"><g clip-path="url(#4dcb9e125d)"><g clip-path="url(#ef4ea571f9)"><path fill="#393e46" d="M 139.324219 228.648438 C 139.664062 241.648438 126.699219 247.402344 116.949219 238.582031 C 107.820312 230.324219 107.609375 212.152344 122.566406 210.972656 C 133.820312 211.371094 139.140625 221.546875 139.324219 228.648438 " fill-opacity="1" fill-rule="nonzero"/></g></g></g><g clip-path="url(#d8f7831cc1)"><g clip-path="url(#afbd07d750)"><g clip-path="url(#4d427a746e)"><path fill="#393e46" d="M 184.3125 228.746094 C 182.863281 243.308594 165.394531 247.683594 156.410156 235.730469 C 149.050781 225.941406 153.878906 211.324219 168.144531 210.667969 C 180.460938 211.382812 185.015625 221.671875 184.3125 228.746094 " fill-opacity="1" fill-rule="nonzero"/></g></g></g><g clip-path="url(#a43bf64b43)"><g clip-path="url(#ea0bd3cb1f)"><g clip-path="url(#9b10eb0eb6)"><path fill="#393e46" d="M 84.320312 267.796875 C 89.125 275.265625 91.351562 279.394531 90.941406 280.066406 C 88.136719 280.289062 71.523438 255.476562 72.984375 253.25 C 74.773438 253.105469 82.742188 265.34375 84.320312 267.796875 " fill-opacity="1" fill-rule="nonzero"/></g></g></g><g clip-path="url(#f546dc05f6)"><g clip-path="url(#d9f7106c45)"><g clip-path="url(#4af6445bf6)"><path fill="#393e46" d="M 99.765625 265.800781 C 103.242188 272.695312 104.148438 279.125 99.648438 277.945312 C 91.171875 275.722656 78.777344 255.078125 83.667969 251.332031 C 83.960938 251.105469 84.460938 250.972656 84.820312 250.886719 C 89.65625 250.90625 96.128906 258.582031 99.765625 265.800781 " fill-opacity="1" fill-rule="nonzero"/></g></g></g><g clip-path="url(#b9fd67e64c)"><g clip-path="url(#2bf4953636)"><g clip-path="url(#25c06301db)"><path fill="#393e46" d="M 127.964844 264.46875 C 130.589844 273.484375 125.703125 280.105469 116.472656 274.683594 C 104.554688 267.6875 100.125 251.074219 109.699219 249.289062 C 110.035156 249.226562 110.484375 249.199219 110.820312 249.164062 C 119.636719 249.390625 126.15625 258.25 127.964844 264.46875 " fill-opacity="1" fill-rule="nonzero"/></g></g></g><g clip-path="url(#a73b8723bd)"><g clip-path="url(#2fa31fbd38)"><g clip-path="url(#b600a02ed8)"><path fill="#393e46" d="M 113.503906 294.625 C 119.6875 300.5625 122.300781 303.703125 121.261719 303.960938 C 117.015625 305.007812 94.667969 285.367188 97.347656 282.949219 C 97.414062 282.886719 97.542969 282.855469 97.625 282.820312 C 100.804688 282.769531 109.789062 291.058594 113.503906 294.625 " fill-opacity="1" fill-rule="nonzero"/></g></g></g><g clip-path="url(#0a7190d6da)"><g clip-path="url(#e40f08bb91)"><g clip-path="url(#547bb1d1de)"><path fill="#393e46" d="M 130.269531 293.332031 C 133.035156 296.984375 136.542969 303.070312 132.152344 302.695312 C 124.300781 302.027344 107.097656 286.363281 111.425781 281.820312 C 111.894531 281.328125 112.582031 281.21875 113.132812 281.128906 C 118.632812 281.222656 125.871094 287.515625 130.269531 293.332031 " fill-opacity="1" fill-rule="nonzero"/></g></g></g><g clip-path="url(#5b2fed1c13)"><g clip-path="url(#e276f20a4e)"><g clip-path="url(#4ef5623eca)"><path fill="#393e46" d="M 156.042969 292.644531 C 158.632812 299.675781 155.464844 304.585938 146.773438 300.386719 C 135.574219 294.972656 129.996094 282.617188 137.734375 280.359375 C 138.332031 280.1875 139.171875 280.113281 139.792969 280.0625 C 148.425781 280.367188 154.238281 287.75 156.042969 292.644531 " fill-opacity="1" fill-rule="nonzero"/></g></g></g><g clip-path="url(#6d51606fd4)"><g clip-path="url(#91e22b5d88)"><g clip-path="url(#3189821b34)"><path fill="#393e46" d="M 185.601562 292.707031 C 185.152344 301.808594 175.28125 305.511719 167.667969 296.539062 C 161.804688 289.636719 163.441406 280.296875 173.210938 279.839844 C 181.339844 280.3125 185.894531 286.753906 185.601562 292.707031 " fill-opacity="1" fill-rule="nonzero"/></g></g></g><g clip-path="url(#e91f454e3d)"><g clip-path="url(#b543d2a2d8)"><g clip-path="url(#354cd2e668)"><path fill="#393e46" d="M 148.15625 314.957031 C 157.351562 320.128906 157.351562 320.128906 157.632812 320.433594 C 157.59375 320.480469 157.546875 320.539062 157.507812 320.582031 C 150.722656 320.484375 127.425781 308.660156 130.410156 306.835938 C 130.492188 306.785156 130.625 306.777344 130.714844 306.75 C 133.621094 306.773438 140.355469 310.566406 148.15625 314.957031 " fill-opacity="1" fill-rule="nonzero"/></g></g></g><g clip-path="url(#9bc123d9aa)"><g clip-path="url(#fdda9da71e)"><g clip-path="url(#28d0b9d843)"><path fill="#393e46" d="M 161.082031 314.34375 C 167.507812 319.949219 165.921875 320.035156 165.402344 320.058594 C 160.019531 320.34375 140.707031 309.507812 143.839844 306.261719 C 144.171875 305.914062 144.785156 305.84375 145.230469 305.785156 C 151.019531 305.953125 158.828125 312.378906 161.082031 314.34375 " fill-opacity="1" fill-rule="nonzero"/></g></g></g><g clip-path="url(#b9acdd5ffe)"><g clip-path="url(#7be4a0e849)"><g clip-path="url(#9c490048b9)"><path fill="#393e46" d="M 178.101562 314.160156 C 178.859375 316.054688 180.765625 322.003906 173.449219 318.875 C 164.929688 315.230469 159.847656 307.871094 164.386719 305.75 C 165.082031 305.425781 165.894531 305.371094 166.488281 305.332031 C 172.15625 305.613281 176.480469 310.105469 178.101562 314.160156 " fill-opacity="1" fill-rule="nonzero"/></g></g></g><g clip-path="url(#9d9fc9915a)"><g clip-path="url(#354867aaef)"><g clip-path="url(#1a70832bd0)"><path fill="#393e46" d="M 196.046875 314.410156 C 193.648438 320.8125 187.140625 322.25 184.019531 314.886719 C 182.171875 310.519531 184.167969 305.695312 190.09375 305.472656 C 195.761719 305.886719 197.570312 310.34375 196.046875 314.410156 " fill-opacity="1" fill-rule="nonzero"/></g></g></g><g clip-path="url(#099103efa0)"><g clip-path="url(#87ec2c4482)"><g clip-path="url(#833201f6b0)"><path fill="#393e46" d="M 213.089844 315.046875 C 211.125 316.769531 200.097656 324.167969 200.75 317.597656 C 201.207031 313.007812 206.335938 306.265625 213.332031 306.152344 C 218.546875 306.691406 217.390625 311.273438 213.089844 315.046875 " fill-opacity="1" fill-rule="nonzero"/></g></g></g><g clip-path="url(#769c2a0791)"><g clip-path="url(#f4f9efb2ea)"><g clip-path="url(#9e82561f73)"><path fill="#393e46" d="M 227.414062 316.011719 C 221.769531 319.070312 212.65625 322.050781 213 320.378906 C 213.3125 318.839844 226.117188 307.253906 233.796875 307.289062 C 237.367188 307.84375 234.554688 311.15625 231.785156 313.246094 C 230.566406 314.171875 229.09375 315.101562 227.414062 316.011719 " fill-opacity="1" fill-rule="nonzero"/></g></g></g></svg>