<?xml version="1.0" encoding="iso-8859-1"?>
<!-- Uploaded to: SVG Repo, www.svgrepo.com, Generator: SVG Repo Mixer Tools -->
<svg height="800px" width="800px" version="1.1" id="Layer_1" xmlns="http://www.w3.org/2000/svg" xmlns:xlink="http://www.w3.org/1999/xlink" 
	 viewBox="0 0 512 512" xml:space="preserve">
<g transform="translate(1 1)">
	<path style="fill:#CCCCCC;" d="M502.467,255c0,136.533-110.933,247.467-247.467,247.467S7.533,391.533,7.533,255
		S118.467,7.533,255,7.533S502.467,118.467,502.467,255"/>
	<path style="fill:#E2E3E5;" d="M476.867,255c0,136.533-98.987,247.467-221.867,247.467S33.133,391.533,33.133,255
		S132.12,7.533,255,7.533S476.867,118.467,476.867,255"/>
	<path style="fill:#F0F0F0;" d="M458.947,394.947c-5.12-54.613-51.2-97.28-107.52-97.28H301.08c-6.827,0-11.947-5.12-11.947-11.947
		v-5.12c0-5.12,3.413-9.387,7.68-11.093c49.493-18.773,83.627-99.84,76.8-157.013C366.787,57.88,323.267,14.36,268.653,8.387
		c-4.267-0.853-8.533-0.853-12.8-0.853l0,0c-65.707,0-119.467,53.76-119.467,119.467c0,51.2,32.427,126.293,77.653,142.507
		c4.267,1.707,7.68,5.973,7.68,11.093v5.12c0,6.827-5.12,11.947-11.947,11.947h-50.347c-56.32,0-102.4,42.667-107.52,97.28
		C95.427,459.8,170.52,502.467,255,502.467S414.573,459.8,458.947,394.947"/>
	<g>
		<polygon style="fill:#E0E0E0;" points="229.4,383 280.6,383 280.6,331.8 229.4,331.8 		"/>
		<path style="fill:#E0E0E0;" d="M220.867,499.907c11.093,1.707,23.04,2.56,34.133,2.56c11.947,0,23.04-0.853,34.987-2.56
			L272.067,383h-34.133L220.867,499.907z"/>
		<path style="fill:#E0E0E0;" d="M229.4,338.627l-34.133-40.96h-41.813c-0.853,0-0.853,0.853-0.853,0.853L186.733,383l42.667-28.16
			V338.627z"/>
		<path style="fill:#E0E0E0;" d="M356.547,297.667h-41.813l-34.133,40.96v16.213L323.267,383l33.28-84.48
			C357.4,298.52,356.547,297.667,356.547,297.667"/>
	</g>
	<path style="fill:#FFFFFF;" d="M33.133,255C33.133,118.467,132.12,7.533,255,7.533C118.467,7.533,7.533,118.467,7.533,255
		S118.467,502.467,255,502.467C132.12,502.467,33.133,391.533,33.133,255"/>
	<g>
		<path style="fill:#B6B6B6;" d="M127,475.16c-5.12,0-8.533-3.413-8.533-8.533V408.6c0-5.12,3.413-8.533,8.533-8.533
			s8.533,3.413,8.533,8.533v58.027C135.533,471.747,132.12,475.16,127,475.16z"/>
		<path style="fill:#B6B6B6;" d="M383,475.16c-5.12,0-8.533-3.413-8.533-8.533V408.6c0-5.12,3.413-8.533,8.533-8.533
			c5.12,0,8.533,3.413,8.533,8.533v58.027C391.533,471.747,388.12,475.16,383,475.16z"/>
		<path style="fill:#B6B6B6;" d="M255,511C114.2,511-1,395.8-1,255S114.2-1,255-1s256,115.2,256,256S395.8,511,255,511z M255,16.067
			C123.587,16.067,16.067,123.587,16.067,255S123.587,493.933,255,493.933S493.933,386.413,493.933,255S386.413,16.067,255,16.067z"
			/>
		<path style="fill:#B6B6B6;" d="M255,511c-84.48,0-163.84-41.813-211.627-111.787c-0.853-1.707-1.707-3.413-1.707-5.973
			c5.973-59.733,56.32-104.96,116.053-104.96h50.347c1.707,0,3.413-1.707,3.413-3.413V280.6c0-1.707-0.853-2.56-1.707-2.56
			C162.84,260.12,127,183.32,127,127c0-34.133,13.653-66.56,37.547-90.453S220.867-1,255-1l0,0c5.12,0,9.387,0,14.507,0.853
			c58.027,6.827,104.96,53.76,112.64,111.787c6.827,59.733-27.307,145.92-81.92,166.4c-0.853,0-2.56,1.707-2.56,3.413v5.12
			c0,1.707,1.707,3.413,3.413,3.413h50.347c59.733,0,110.08,45.227,116.053,104.96c0,1.707,0,4.267-1.707,5.973
			C418.84,469.187,339.48,511,255,511z M59.587,392.387c45.227,64,117.76,101.547,195.413,101.547s150.187-37.547,195.413-101.547
			c-6.827-49.493-48.64-86.187-98.987-86.187H301.08c-11.093,0-20.48-9.387-20.48-20.48v-5.12c0-8.533,5.12-16.213,13.653-18.773
			c46.08-17.067,77.653-95.573,70.827-148.48C359.107,63,318.147,22.04,267.8,16.92c-4.267-0.853-7.68-0.853-11.947-0.853l0,0
			c-29.867,0-58.027,11.093-78.507,32.427c-21.333,21.333-33.28,48.64-33.28,78.507c0,49.493,31.573,119.467,72.533,134.827
			c7.68,2.56,12.8,10.24,12.8,18.773v5.12c0,11.093-9.387,20.48-20.48,20.48h-50.347C108.227,306.2,66.413,342.893,59.587,392.387z"
			/>
		<path style="fill:#B6B6B6;" d="M280.6,391.533h-51.2c-5.12,0-8.533-3.413-8.533-8.533v-51.2c0-5.12,3.413-8.533,8.533-8.533h51.2
			c5.12,0,8.533,3.413,8.533,8.533V383C289.133,388.12,285.72,391.533,280.6,391.533z M237.933,374.467h34.133v-34.133h-34.133
			V374.467z"/>
		<path style="fill:#B6B6B6;" d="M186.733,391.533c-0.853,0-1.707,0-2.56,0c-2.56-0.853-4.267-2.56-5.12-5.12l-33.28-84.48
			c-0.853-2.56-0.853-5.973,0.853-8.533c1.707-2.56,4.267-4.267,7.68-4.267h40.96c2.56,0,5.12,0.853,6.827,3.413l34.133,40.96
			c0.853,1.707,1.707,3.413,1.707,5.12v16.213c0,2.56-1.707,5.12-3.413,6.827l-42.667,28.16
			C190.147,390.68,188.44,391.533,186.733,391.533z M165.4,306.2l25.6,64l29.867-20.48v-8.533L191,306.2H165.4z M161.133,295.96
			L161.133,295.96L161.133,295.96z"/>
		<path style="fill:#B6B6B6;" d="M323.267,391.533c-1.707,0-3.413-0.853-5.12-1.707l-42.667-28.16
			c-1.707-1.707-3.413-4.267-3.413-6.827v-16.213c0-1.707,0.853-4.267,1.707-5.12l34.133-40.96c1.707-1.707,4.267-3.413,6.827-3.413
			h41.813c2.56,0,5.973,1.707,7.68,4.267s1.707,5.973,0.853,8.533l-33.28,84.48c-0.853,2.56-2.56,4.267-5.12,5.12
			C324.973,391.533,324.12,391.533,323.267,391.533z M289.133,349.72L319,370.2l25.6-64h-26.453l-29.013,35.84V349.72z
			 M356.547,306.2L356.547,306.2L356.547,306.2z"/>
		<path style="fill:#B6B6B6;" d="M255,511c-11.947,0-23.893-0.853-35.84-2.56c-2.56,0-4.267-1.707-5.973-3.413
			c-1.707-1.707-1.707-4.267-1.707-5.973l17.067-116.907c0.853-4.267,4.267-7.68,8.533-7.68h34.133c4.267,0,7.68,3.413,8.533,7.68
			l17.92,116.907c0,2.56,0,4.267-1.707,5.973c-1.707,1.707-3.413,3.413-5.973,3.413C278.893,510.147,266.947,511,255,511z
			 M230.253,492.227c17.067,1.707,33.28,1.707,49.493,0l-15.36-100.693H244.76L230.253,492.227z"/>
	</g>
	<path style="fill:#E0E0E0;" d="M291.693,64.707c31.573,8.533,61.44,28.16,81.067,53.76c0-1.707,0-3.413,0-5.973
		c-7.68-53.76-52.053-97.28-105.813-103.253c-4.267-0.853-8.533-0.853-12.8-0.853l0,0c-58.88,0-108.373,42.667-117.76,98.987l0,0
		c1.707,2.56,52.053-20.48,75.947-10.24c7.68,3.413,15.36,5.12,23.893,5.12C260.973,102.253,282.307,86.04,291.693,64.707"/>
	<path style="fill:#B6B6B6;" d="M371.907,127c-2.56,0-5.12-0.853-6.827-3.413c-16.213-22.187-40.96-39.253-69.12-48.64
		c-11.947,22.187-34.987,35.84-59.733,35.84c-9.387,0-18.773-1.707-27.307-5.973c-14.507-6.827-45.227,3.413-59.733,7.68
		c-11.093,3.413-16.213,5.12-20.48-0.853C127,109.933,127,107.373,127,105.667C138.093,44.227,191-0.147,253.293-0.147l0,0
		c5.12,0,10.24,0,14.507,0.853c58.027,6.827,104.96,53.76,112.64,111.787c0,1.707,0,2.56,0,4.267v1.707
		c0,3.413-1.707,7.68-5.12,8.533C374.467,127,372.76,127,371.907,127z M253.293,16.92c-49.493,0-92.16,31.573-105.813,78.507
		c18.773-5.973,48.64-14.507,68.267-5.973c6.827,2.56,13.653,4.267,20.48,4.267c21.333,0,39.253-12.8,47.787-32.427
		c1.707-4.267,5.973-5.973,10.24-5.12c23.893,6.827,46.08,18.773,64,34.133C344.6,51.053,308.76,22.04,266.093,16.92
		C261.827,16.92,257.56,16.92,253.293,16.92L253.293,16.92z"/>
</g>
</svg>